<svg width="630" height="97" viewBox="0 0 630 97" fill="none" xmlns="http://www.w3.org/2000/svg">
<g clip-path="url(#clip0_11_5)">
<path d="M0 0H0.354375L30.8897 35.4667V3.49699H48.5789V81.6678H30.8897V44.9153H17.6794V81.6678H0V0Z" fill="#F50000"/>
<path d="M82.53 0L110.004 81.6678L88.1901 81.434L82.4119 87.6195L76.6336 81.434L54.8198 81.6678L82.2937 0H82.53Z" fill="#F50000"/>
<path d="M116.255 0H116.845L133.708 63.3549L158.937 81.0931V81.6775H116.255V0Z" fill="#F50000"/>
<path d="M164.706 3.49701H202.791L179.442 29.6319L194.65 40.8339L165.178 85.1746H164.706V3.49701Z" fill="#F50000"/>
<path d="M235.571 85.1745L222.252 16.6862L210.105 27.3038L204.799 3.50671H266.815L261.509 27.3038L249.48 16.6862L236.043 85.1745H235.571Z" fill="#F50000"/>
<path d="M267.868 42.3535C268.341 19.248 280.133 1.87024 295.46 1.87024C310.787 1.87024 321.871 20.1929 321.398 44.5744C321.044 66.7447 309.724 83.314 294.988 83.314C279.188 83.314 267.514 65.8096 267.868 42.3632V42.3535Z" fill="#F50000"/>
<path d="M330.238 85.1745V0L361.246 19.4818L375.155 0H375.51V85.1745L344.502 65.6927L330.593 85.1745H330.238Z" fill="#F50000"/>
<path d="M386.83 3.49701H424.088L401.33 29.2812L417.601 39.1975L401.684 50.0488L424.915 81.6678H386.83V3.49701Z" fill="#F50000"/>
<path d="M482.678 87.7656C482.747 87.9604 482.816 88.1358 482.875 88.3014C482.944 88.467 483.043 88.6033 483.18 88.7397C483.318 88.8663 483.495 88.9832 483.732 89.0806C483.968 89.178 484.214 89.256 484.49 89.3242L486.409 89.6164V90.5807H475.424V89.6164L476.831 89.3242C476.9 89.3242 476.969 89.3047 477.028 89.2755C477.097 89.2462 477.166 89.1975 477.235 89.1293C477.304 89.1293 477.373 89.1196 477.432 89.0806C477.501 89.0514 477.57 89.0027 477.638 88.9345C477.904 88.7397 478.052 88.4962 478.091 88.2137C478.121 87.9215 478.14 87.6487 478.14 87.3955V29.8364L471.191 90.4639H466.761L459.703 29.252V86.548C459.703 86.8402 459.733 87.1422 459.802 87.4637C459.802 87.7851 459.851 88.0871 459.949 88.3793C460.048 88.6715 460.166 88.8469 460.304 88.915C460.441 88.9832 460.569 89.0417 460.707 89.1099C460.845 89.1781 460.973 89.2365 461.111 89.3047L462.627 89.5969V90.5613H455.47V89.5969L456.681 89.3047C456.888 89.2462 457.085 89.1586 457.291 89.0612C457.488 88.9638 457.626 88.8566 457.695 88.7202C457.764 88.5936 457.833 88.4183 457.902 88.1845C457.971 87.9604 458 87.7169 458 87.4637C458.069 87.074 458.138 86.5675 458.197 85.9148V16.9979C458.197 16.6765 458.177 16.3842 458.148 16.131C458.118 15.8777 457.961 15.6537 457.695 15.4588C457.626 15.3322 457.547 15.2543 457.439 15.2153C457.341 15.1861 457.223 15.1666 457.085 15.1666C457.016 15.1082 456.967 15.0692 456.937 15.0692H456.789L455.579 14.777V13.8126H462.43L470.689 79.8463L477.235 13.8126H484.992V14.777L483.682 15.0692H483.535C483.535 15.0692 483.486 15.0984 483.486 15.1666C483.348 15.1666 483.23 15.1861 483.131 15.2153C483.033 15.2445 482.915 15.3322 482.777 15.4588C482.57 15.6537 482.462 15.8777 482.423 16.131C482.383 16.394 482.373 16.6765 482.373 16.9979V86.4116C482.442 86.9961 482.541 87.4442 482.678 87.7656Z" fill="#969696"/>
<path d="M494.875 85.9246V87.0838C494.875 87.4734 494.895 87.8241 494.924 88.1455C494.954 88.467 495.042 88.691 495.18 88.8177C495.249 88.8177 495.298 88.8371 495.328 88.8664C495.357 88.8956 495.406 88.9443 495.475 89.0125C495.544 89.0125 495.623 89.032 495.731 89.0612C495.83 89.0904 495.948 89.1391 496.086 89.2073L497.602 89.4995V90.4639H490.75V89.4995L491.863 89.2073C492.069 89.1488 492.266 89.0612 492.473 88.9638C492.67 88.8664 492.808 88.7592 492.877 88.6228C492.946 88.4962 493.014 88.3209 493.073 88.0871C493.142 87.863 493.172 87.6195 493.172 87.3663C493.241 86.9766 493.31 86.4701 493.369 85.8175L498.812 13.7932H503.045L508.991 86.2948C509.06 86.8792 509.158 87.3273 509.296 87.6488C509.365 87.8436 509.434 88.0189 509.503 88.1748C509.572 88.3403 509.67 88.4767 509.808 88.6131C510.005 88.7397 510.221 88.8566 510.467 88.954C510.704 89.0514 510.95 89.1294 511.225 89.1976L513.145 89.4898V90.4541H501.352V89.4898L503.37 89.1976H503.518C503.518 89.1976 503.596 89.1683 503.665 89.1001C503.793 89.1001 503.921 89.0904 504.02 89.0514C504.118 89.0222 504.207 88.9345 504.276 88.8079C504.541 88.6131 504.689 88.3696 504.728 88.0871C504.758 87.7949 504.778 87.5221 504.778 87.2688L503.567 72.3068H495.908L494.904 85.9246H494.875ZM499.708 24.0406L496.086 70.3781H503.341L499.718 24.0406H499.708Z" fill="#969696"/>
<path d="M532.96 80.8106C532.96 83.6452 532.419 86.061 531.346 88.0481C530.273 90.045 528.353 91.0386 525.607 91.0386C522.654 91.0386 520.538 90.0742 519.258 88.1358C517.978 86.1973 517.309 84.0446 517.24 81.6581V22.9983C517.378 20.5533 518.096 18.2837 519.406 16.1894C520.715 14.0951 522.851 13.0431 525.804 13.0431C526.414 13.0431 526.995 13.16 527.566 13.384C528.137 13.6081 528.619 13.8516 529.023 14.1048C529.426 14.2997 529.741 14.4945 529.978 14.6796C530.214 14.8744 530.362 15.001 530.43 15.0692C530.696 15.0692 530.933 15.0205 531.139 14.9231C531.336 14.8257 531.543 14.7185 531.74 14.5822C531.809 14.514 531.858 14.4555 531.887 14.3873C531.917 14.3192 531.937 14.2607 531.937 14.1925C532.005 14.1341 532.055 14.0659 532.084 13.9977C532.114 13.9393 532.133 13.8711 532.133 13.8029H532.941V33.4016H531.021V23.5048C531.021 21.1183 530.686 19.0532 530.017 17.3388C529.348 15.6244 528.068 14.7672 526.188 14.7672C524.839 14.7672 523.884 15.3322 523.313 16.4621C522.743 17.5921 522.388 18.8292 522.26 20.1832C522.191 20.5728 522.162 20.9235 522.162 21.2449V82.3886C522.162 82.7393 522.191 83.0802 522.26 83.4017C522.329 84.8823 522.644 86.2558 523.215 87.5124C523.786 88.7689 524.81 89.3923 526.286 89.3923C527.763 89.3923 528.855 88.7495 529.564 87.4637C530.273 86.1779 530.726 84.7557 530.923 83.2166C530.992 82.8952 531.021 82.5835 531.021 82.301V69.6086H532.941V80.8106H532.96Z" fill="#969696"/>
<path d="M553.721 16.9979V16.4232C553.721 16.2283 553.691 16.053 553.622 15.8874C553.553 15.7316 553.455 15.5854 553.317 15.4491C553.248 15.3224 553.15 15.2445 553.012 15.2055C552.874 15.1763 552.746 15.1276 552.608 15.0594L551.299 14.7672V13.8029H562.177V14.7672L560.159 15.0594H560.011C560.011 15.0594 559.922 15.0887 559.863 15.1568C559.725 15.1568 559.598 15.1763 559.46 15.2055C559.322 15.2348 559.194 15.3224 559.056 15.4491C558.987 15.5173 558.918 15.6147 558.849 15.7413C558.78 15.8679 558.751 16.0335 558.751 16.2186C558.682 16.4134 558.653 16.6667 558.653 16.9881V87.3662C558.653 87.6877 558.682 87.9799 558.751 88.2332C558.751 88.3598 558.78 88.4864 558.849 88.6228C558.918 88.7494 558.987 88.8468 559.056 88.915C559.194 89.0417 559.361 89.1293 559.558 89.1586C559.765 89.1878 559.962 89.2073 560.168 89.2073L562.186 89.4995V90.4638H551.506V89.4995L552.618 89.2073C552.756 89.2073 552.855 89.1975 552.923 89.1586C552.992 89.1293 553.061 89.0806 553.13 89.0124L553.327 88.915C553.465 88.7884 553.544 88.691 553.583 88.6228C553.613 88.5644 553.672 88.4669 553.731 88.3306V50.0001H546.377V87.3662C546.377 87.6877 546.407 87.9799 546.476 88.2332C546.476 88.3598 546.505 88.4864 546.574 88.6228C546.643 88.7494 546.712 88.8468 546.781 88.915C546.919 88.9832 547.066 89.0417 547.234 89.1099C547.401 89.178 547.549 89.2073 547.687 89.2073L549.094 89.4995V90.4638H538.315V89.4995L540.127 89.2073C540.264 89.2073 540.383 89.1975 540.481 89.1586C540.579 89.1293 540.668 89.1099 540.737 89.1099L540.885 88.9637C540.885 88.9637 540.963 88.915 541.032 88.915C541.298 88.6618 541.455 88.3988 541.485 88.1455C541.515 87.8922 541.534 87.6292 541.534 87.376V16.9979C541.534 16.6764 541.515 16.3842 541.485 16.1309C541.455 15.8777 541.298 15.6536 541.032 15.4588C540.963 15.4004 540.914 15.3517 540.885 15.3127C540.845 15.2835 540.796 15.264 540.737 15.264C540.668 15.1958 540.619 15.1666 540.589 15.1666H540.442C540.373 15.1081 540.323 15.0692 540.294 15.0692H540.146L538.335 14.7769V13.8126H549.212V14.7769L547.805 15.0692H547.657C547.657 15.0692 547.568 15.0984 547.509 15.1666C547.372 15.1666 547.253 15.1861 547.155 15.2153C547.057 15.2445 546.938 15.3322 546.801 15.4588C546.732 15.527 546.663 15.6244 546.594 15.751C546.525 15.8777 546.495 16.0433 546.495 16.2283C546.427 16.4232 546.397 16.6764 546.397 16.9979V48.1785H553.75V16.9979H553.721Z" fill="#969696"/>
<path d="M570.898 16.131C570.859 15.8777 570.711 15.6537 570.445 15.4588C570.376 15.3322 570.298 15.2543 570.189 15.2153C570.091 15.1861 569.973 15.1666 569.835 15.1666C569.766 15.1082 569.717 15.0692 569.687 15.0692H569.54L567.522 14.777V13.8126H579.315V14.777L577.297 15.0692H577.149C577.149 15.0692 577.06 15.0984 577.001 15.1666C576.863 15.1666 576.735 15.1861 576.598 15.2153C576.46 15.2445 576.332 15.3322 576.194 15.4588C576.125 15.527 576.056 15.6244 575.987 15.7511C575.918 15.8777 575.889 16.0433 575.889 16.2284C575.82 16.4232 575.79 16.6765 575.79 16.9979V87.376C575.79 87.6974 575.82 87.9897 575.889 88.2429C575.889 88.3696 575.918 88.4962 575.987 88.6326C576.056 88.7592 576.125 88.8566 576.194 88.9248C576.322 89.0514 576.499 89.1391 576.696 89.1683C576.903 89.1975 577.1 89.217 577.306 89.217L579.324 89.5092V90.4736H567.532V89.5092L569.55 89.217C569.756 89.217 569.933 89.1878 570.101 89.1196C570.268 89.0514 570.386 88.993 570.455 88.9248C570.721 88.6715 570.869 88.4085 570.908 88.1553C570.937 87.902 570.957 87.639 570.957 87.3857V16.9979C570.957 16.6765 570.937 16.3842 570.908 16.131H570.898Z" fill="#969696"/>
<path d="M589.089 23.6607V85.9343C589.089 86.0025 589.109 86.1778 589.139 86.4701C589.168 86.7623 589.188 87.0643 589.188 87.3857C589.257 87.7072 589.326 88.0091 589.395 88.3014C589.463 88.5936 589.562 88.7689 589.7 88.8371C589.769 88.8371 589.818 88.8566 589.847 88.8858C589.877 88.915 589.926 88.9637 589.995 89.0319C590.064 89.0319 590.143 89.0514 590.251 89.0806C590.349 89.1098 590.468 89.1585 590.605 89.2267L592.121 89.519V90.4833H584.866V89.519L586.274 89.2267C586.471 89.1001 586.638 89.0027 586.776 88.9345C586.845 88.8663 586.914 88.8176 586.973 88.7884C587.032 88.7592 587.111 88.7105 587.18 88.6423C587.249 88.5157 587.318 88.3403 587.377 88.1065C587.446 87.8825 587.475 87.639 587.475 87.3857C587.544 86.9961 587.613 86.4895 587.672 85.8369V16.9979C587.672 16.6764 587.652 16.3842 587.623 16.1309C587.593 15.8777 587.436 15.6536 587.17 15.4588C587.032 15.3322 586.914 15.2543 586.816 15.2153C586.717 15.1861 586.599 15.1666 586.461 15.1666C586.461 15.1081 586.441 15.0692 586.412 15.0692H586.264L584.345 14.7769V13.8126H592.308L603.186 75.6966V18.3519C603.186 18.2934 603.166 18.1083 603.136 17.8161C603.107 17.5239 603.087 17.2219 603.087 16.9005C603.018 16.579 602.949 16.277 602.881 15.9848C602.812 15.6926 602.713 15.5173 602.575 15.4491C602.506 15.3906 602.457 15.3517 602.428 15.3517C602.398 15.3517 602.339 15.3224 602.28 15.2543C602.211 15.2543 602.132 15.225 602.024 15.1568C601.926 15.0984 601.808 15.0594 601.67 15.0594L600.262 14.7672V13.8029H607.615V14.7672L606.405 15.0594C606.198 15.1276 606.021 15.1861 605.853 15.2543C605.686 15.3224 605.538 15.4491 605.401 15.6439C605.332 15.7705 605.263 15.9459 605.204 16.1796C605.135 16.4037 605.066 16.6472 604.997 16.9005C604.997 17.2901 604.967 17.8064 604.898 18.4493V90.4736H600.361L589.07 23.6704L589.089 23.6607Z" fill="#969696"/>
<path d="M621.436 89.2073C622.775 89.0806 623.857 88.8566 624.665 88.5352C625.137 88.2819 625.62 87.941 626.122 87.5221C626.624 87.1032 627.007 86.5772 627.283 85.9343C627.48 85.4863 627.647 84.9505 627.785 84.3466C627.923 83.7329 628.021 83.1095 628.09 82.4666C628.228 81.3756 628.307 80.343 628.346 79.3787C628.376 78.4143 628.395 77.8689 628.395 77.7422L628.297 71.4691H630.01V90.4931H612.173L611.976 89.5287L613.492 89.2365C613.63 89.2365 613.748 89.2268 613.846 89.1878C613.945 89.1586 614.033 89.1099 614.102 89.0417L614.309 88.9443C614.575 88.691 614.722 88.428 614.762 88.1747C614.791 87.9215 614.811 87.6585 614.811 87.4052V16.9979C614.811 16.6765 614.791 16.3842 614.762 16.131C614.722 15.8777 614.575 15.6537 614.309 15.4588C614.24 15.3322 614.161 15.2543 614.053 15.2153C613.955 15.1861 613.837 15.1374 613.699 15.0692L612.183 14.777V13.8126H630.02V32.9243H628.405V26.6511C628.405 26.5245 628.386 25.979 628.356 25.0147C628.317 24.0503 628.238 22.9886 628.1 21.8294C628.031 21.1865 627.933 20.5631 627.795 19.9494C627.657 19.3357 627.49 18.8097 627.293 18.3616C627.027 17.7187 626.633 17.1927 626.131 16.7739C625.629 16.355 625.137 16.053 624.675 15.8582C624.005 15.605 623.385 15.4394 622.814 15.3712C622.243 15.3127 621.859 15.2738 621.652 15.2738H619.634V48.198H620.895C621.062 48.198 621.249 48.1688 621.446 48.1006C621.712 48.1006 621.997 48.0422 622.302 47.9058C622.607 47.7792 622.824 47.6136 622.962 47.4188C623.168 47.0973 623.326 46.6979 623.464 46.2109C623.602 45.7336 623.7 45.2271 623.769 44.7108C623.838 43.9997 623.867 43.3568 623.867 42.7821V37.4733H625.383V62.8679H623.976V56.0103C623.976 55.6206 623.956 55.1433 623.926 54.5589C623.887 53.9841 623.779 53.3997 623.572 52.825C623.503 52.5717 623.405 52.299 623.267 52.0067C623.129 51.7145 623.001 51.4418 622.863 51.1885C622.725 50.9352 622.529 50.7209 622.253 50.5553C621.987 50.3995 621.712 50.2826 621.446 50.2144C621.249 50.156 621.022 50.1073 620.786 50.0683C620.55 50.0391 620.363 50.0196 620.235 50.0196H619.733L619.634 89.217H621.446L621.436 89.2073Z" fill="#969696"/>
<path d="M0 9.37073H0.354375L30.8897 44.8374V12.8775H48.5789V91.0483H30.8897V54.2958H17.6794V91.0483H0V9.37073Z" fill="#969696"/>
<path d="M82.53 9.37073L110.004 91.0385L88.1901 90.8047L82.4119 96.9902L76.6336 90.8047L54.8198 91.0385L82.2937 9.37073H82.53Z" fill="#969696"/>
<path d="M116.255 9.37073H116.845L133.708 72.7256L158.937 90.4638V91.0483H116.255V9.37073Z" fill="#969696"/>
<path d="M164.706 12.8774H202.791L179.442 39.0123L194.65 50.2144L165.178 94.555H164.706V12.8774Z" fill="#969696"/>
<path d="M235.571 94.5452L222.252 26.0569L210.105 36.6745L204.799 12.8774H266.815L261.509 36.6745L249.48 26.0569L236.043 94.5452H235.571Z" fill="#969696"/>
<path d="M267.868 51.7242C268.341 28.6188 280.133 11.241 295.46 11.241C310.787 11.241 321.871 29.5636 321.398 53.9451C321.044 76.1154 309.724 92.6847 294.988 92.6847C279.188 92.6847 267.514 75.1803 267.868 51.7339V51.7242Z" fill="#969696"/>
<path d="M330.238 94.5452V9.37073L361.246 28.8525L375.155 9.37073H375.51V94.5452L344.502 75.0634L330.593 94.5452H330.238Z" fill="#969696"/>
<path d="M386.83 12.8774H424.088L401.33 38.6616L417.601 48.5779L401.684 59.4293L424.915 91.0483H386.83V12.8774Z" fill="#969696"/>
</g>
<defs>
<clipPath id="clip0_11_5">
<rect width="630" height="97" fill="white"/>
</clipPath>
</defs>
</svg>
